# MagicaVoxel @ ephtracy

# material
mtllib 8PinIC.mtl
usemtl palette

# normals
vn -1 0 0
vn 1 0 0
vn 0 0 1
vn 0 0 -1
vn 0 -1 0
vn 0 1 0

# texcoords
vt 0.970703 0.5
vt 0.994141 0.5

# verts
v -9.5 0 3.5
v -9.5 0 2.5
v -9.5 0 -2.5
v -9.5 0 -3.5
v -9.5 2 2.5
v -9.5 2 1.5
v -9.5 2 -1.5
v -9.5 2 -2.5
v -9.5 3 3.5
v -9.5 3 2.5
v -9.5 3 -2.5
v -9.5 3 -3.5
v -9.5 4 3.5
v -9.5 4 2.5
v -9.5 4 -2.5
v -9.5 4 -3.5
v -9.5 5 2.5
v -9.5 5 1.5
v -9.5 5 -1.5
v -9.5 5 -2.5
v -8.5 2 1.5
v -8.5 2 -1.5
v -8.5 5 1.5
v -8.5 5 -1.5
v -6.5 0 3.5
v -6.5 0 2.5
v -6.5 0 -2.5
v -6.5 0 -3.5
v -6.5 2 3.5
v -6.5 2 2.5
v -6.5 2 -2.5
v -6.5 2 -3.5
v -3.5 0 3.5
v -3.5 0 2.5
v -3.5 0 -2.5
v -3.5 0 -3.5
v -3.5 2 3.5
v -3.5 2 2.5
v -3.5 2 -2.5
v -3.5 2 -3.5
v -0.5 0 3.5
v -0.5 0 2.5
v -0.5 0 -2.5
v -0.5 0 -3.5
v -0.5 2 3.5
v -0.5 2 2.5
v -0.5 2 -2.5
v -0.5 2 -3.5
v 2.5 0 3.5
v 2.5 0 2.5
v 2.5 0 -2.5
v 2.5 0 -3.5
v 2.5 2 3.5
v 2.5 2 2.5
v 2.5 2 -2.5
v 2.5 2 -3.5
v 5.5 0 3.5
v 5.5 0 2.5
v 5.5 0 -2.5
v 5.5 0 -3.5
v 5.5 2 3.5
v 5.5 2 2.5
v 5.5 2 -2.5
v 5.5 2 -3.5
v 8.5 0 3.5
v 8.5 0 2.5
v 8.5 0 -2.5
v 8.5 0 -3.5
v 8.5 2 3.5
v 8.5 2 2.5
v 8.5 2 -2.5
v 8.5 2 -3.5
v -8.5 0 3.5
v -8.5 0 2.5
v -8.5 0 -2.5
v -8.5 0 -3.5
v -8.5 2 3.5
v -8.5 2 2.5
v -8.5 2 -2.5
v -8.5 2 -3.5
v -5.5 0 3.5
v -5.5 0 2.5
v -5.5 0 -2.5
v -5.5 0 -3.5
v -5.5 2 3.5
v -5.5 2 2.5
v -5.5 2 -2.5
v -5.5 2 -3.5
v -2.5 0 3.5
v -2.5 0 2.5
v -2.5 0 -2.5
v -2.5 0 -3.5
v -2.5 2 3.5
v -2.5 2 2.5
v -2.5 2 -2.5
v -2.5 2 -3.5
v 0.5 0 3.5
v 0.5 0 2.5
v 0.5 0 -2.5
v 0.5 0 -3.5
v 0.5 2 3.5
v 0.5 2 2.5
v 0.5 2 -2.5
v 0.5 2 -3.5
v 3.5 0 3.5
v 3.5 0 2.5
v 3.5 0 -2.5
v 3.5 0 -3.5
v 3.5 2 3.5
v 3.5 2 2.5
v 3.5 2 -2.5
v 3.5 2 -3.5
v 6.5 0 3.5
v 6.5 0 2.5
v 6.5 0 -2.5
v 6.5 0 -3.5
v 6.5 2 3.5
v 6.5 2 2.5
v 6.5 2 -2.5
v 6.5 2 -3.5
v 9.5 0 3.5
v 9.5 0 2.5
v 9.5 0 -2.5
v 9.5 0 -3.5
v 9.5 2 2.5
v 9.5 2 -2.5
v 9.5 3 3.5
v 9.5 3 2.5
v 9.5 3 -2.5
v 9.5 3 -3.5
v 9.5 4 3.5
v 9.5 4 2.5
v 9.5 4 -2.5
v 9.5 4 -3.5
v 9.5 5 2.5
v 9.5 5 -2.5
v -9.5 0 3.5
v -9.5 3 3.5
v -9.5 4 3.5
v -8.5 0 3.5
v -8.5 2 3.5
v -8.5 3 3.5
v -6.5 0 3.5
v -6.5 2 3.5
v -6.5 3 3.5
v -5.5 0 3.5
v -5.5 2 3.5
v -5.5 3 3.5
v -3.5 0 3.5
v -3.5 2 3.5
v -3.5 3 3.5
v -2.5 0 3.5
v -2.5 2 3.5
v -2.5 3 3.5
v -0.5 0 3.5
v -0.5 2 3.5
v -0.5 3 3.5
v 0.5 0 3.5
v 0.5 2 3.5
v 0.5 3 3.5
v 2.5 0 3.5
v 2.5 2 3.5
v 2.5 3 3.5
v 3.5 0 3.5
v 3.5 2 3.5
v 3.5 3 3.5
v 5.5 0 3.5
v 5.5 2 3.5
v 5.5 3 3.5
v 6.5 0 3.5
v 6.5 2 3.5
v 6.5 3 3.5
v 8.5 0 3.5
v 8.5 2 3.5
v 8.5 3 3.5
v 9.5 0 3.5
v 9.5 3 3.5
v 9.5 4 3.5
v -9.5 4 2.5
v -9.5 5 2.5
v 9.5 4 2.5
v 9.5 5 2.5
v -9.5 2 -1.5
v -9.5 5 -1.5
v -8.5 2 -1.5
v -8.5 5 -1.5
v -9.5 0 -2.5
v -9.5 2 -2.5
v -8.5 0 -2.5
v -8.5 2 -2.5
v -6.5 0 -2.5
v -6.5 2 -2.5
v -5.5 0 -2.5
v -5.5 2 -2.5
v -3.5 0 -2.5
v -3.5 2 -2.5
v -2.5 0 -2.5
v -2.5 2 -2.5
v -0.5 0 -2.5
v -0.5 2 -2.5
v 0.5 0 -2.5
v 0.5 2 -2.5
v 2.5 0 -2.5
v 2.5 2 -2.5
v 3.5 0 -2.5
v 3.5 2 -2.5
v 5.5 0 -2.5
v 5.5 2 -2.5
v 6.5 0 -2.5
v 6.5 2 -2.5
v 8.5 0 -2.5
v 8.5 2 -2.5
v 9.5 0 -2.5
v 9.5 2 -2.5
v -9.5 0 2.5
v -9.5 2 2.5
v -8.5 0 2.5
v -8.5 2 2.5
v -6.5 0 2.5
v -6.5 2 2.5
v -5.5 0 2.5
v -5.5 2 2.5
v -3.5 0 2.5
v -3.5 2 2.5
v -2.5 0 2.5
v -2.5 2 2.5
v -0.5 0 2.5
v -0.5 2 2.5
v 0.5 0 2.5
v 0.5 2 2.5
v 2.5 0 2.5
v 2.5 2 2.5
v 3.5 0 2.5
v 3.5 2 2.5
v 5.5 0 2.5
v 5.5 2 2.5
v 6.5 0 2.5
v 6.5 2 2.5
v 8.5 0 2.5
v 8.5 2 2.5
v 9.5 0 2.5
v 9.5 2 2.5
v -9.5 2 1.5
v -9.5 5 1.5
v -8.5 2 1.5
v -8.5 5 1.5
v -9.5 4 -2.5
v -9.5 5 -2.5
v 9.5 4 -2.5
v 9.5 5 -2.5
v -9.5 0 -3.5
v -9.5 3 -3.5
v -9.5 4 -3.5
v -8.5 0 -3.5
v -8.5 2 -3.5
v -8.5 3 -3.5
v -6.5 0 -3.5
v -6.5 2 -3.5
v -6.5 3 -3.5
v -5.5 0 -3.5
v -5.5 2 -3.5
v -5.5 3 -3.5
v -3.5 0 -3.5
v -3.5 2 -3.5
v -3.5 3 -3.5
v -2.5 0 -3.5
v -2.5 2 -3.5
v -2.5 3 -3.5
v -0.5 0 -3.5
v -0.5 2 -3.5
v -0.5 3 -3.5
v 0.5 0 -3.5
v 0.5 2 -3.5
v 0.5 3 -3.5
v 2.5 0 -3.5
v 2.5 2 -3.5
v 2.5 3 -3.5
v 3.5 0 -3.5
v 3.5 2 -3.5
v 3.5 3 -3.5
v 5.5 0 -3.5
v 5.5 2 -3.5
v 5.5 3 -3.5
v 6.5 0 -3.5
v 6.5 2 -3.5
v 6.5 3 -3.5
v 8.5 0 -3.5
v 8.5 2 -3.5
v 8.5 3 -3.5
v 9.5 0 -3.5
v 9.5 3 -3.5
v 9.5 4 -3.5
v -9.5 0 3.5
v -8.5 0 3.5
v -6.5 0 3.5
v -5.5 0 3.5
v -3.5 0 3.5
v -2.5 0 3.5
v -0.5 0 3.5
v 0.5 0 3.5
v 2.5 0 3.5
v 3.5 0 3.5
v 5.5 0 3.5
v 6.5 0 3.5
v 8.5 0 3.5
v 9.5 0 3.5
v -9.5 0 2.5
v -8.5 0 2.5
v -6.5 0 2.5
v -5.5 0 2.5
v -3.5 0 2.5
v -2.5 0 2.5
v -0.5 0 2.5
v 0.5 0 2.5
v 2.5 0 2.5
v 3.5 0 2.5
v 5.5 0 2.5
v 6.5 0 2.5
v 8.5 0 2.5
v 9.5 0 2.5
v -9.5 0 -2.5
v -8.5 0 -2.5
v -6.5 0 -2.5
v -5.5 0 -2.5
v -3.5 0 -2.5
v -2.5 0 -2.5
v -0.5 0 -2.5
v 0.5 0 -2.5
v 2.5 0 -2.5
v 3.5 0 -2.5
v 5.5 0 -2.5
v 6.5 0 -2.5
v 8.5 0 -2.5
v 9.5 0 -2.5
v -9.5 0 -3.5
v -8.5 0 -3.5
v -6.5 0 -3.5
v -5.5 0 -3.5
v -3.5 0 -3.5
v -2.5 0 -3.5
v -0.5 0 -3.5
v 0.5 0 -3.5
v 2.5 0 -3.5
v 3.5 0 -3.5
v 5.5 0 -3.5
v 6.5 0 -3.5
v 8.5 0 -3.5
v 9.5 0 -3.5
v -8.5 2 3.5
v -6.5 2 3.5
v -5.5 2 3.5
v -3.5 2 3.5
v -2.5 2 3.5
v -0.5 2 3.5
v 0.5 2 3.5
v 2.5 2 3.5
v 3.5 2 3.5
v 5.5 2 3.5
v 6.5 2 3.5
v 8.5 2 3.5
v -9.5 2 2.5
v -8.5 2 2.5
v -6.5 2 2.5
v -5.5 2 2.5
v -3.5 2 2.5
v -2.5 2 2.5
v -0.5 2 2.5
v 0.5 2 2.5
v 2.5 2 2.5
v 3.5 2 2.5
v 5.5 2 2.5
v 6.5 2 2.5
v 8.5 2 2.5
v 9.5 2 2.5
v -9.5 2 1.5
v -8.5 2 1.5
v -9.5 2 -1.5
v -8.5 2 -1.5
v -9.5 2 -2.5
v -8.5 2 -2.5
v -6.5 2 -2.5
v -5.5 2 -2.5
v -3.5 2 -2.5
v -2.5 2 -2.5
v -0.5 2 -2.5
v 0.5 2 -2.5
v 2.5 2 -2.5
v 3.5 2 -2.5
v 5.5 2 -2.5
v 6.5 2 -2.5
v 8.5 2 -2.5
v 9.5 2 -2.5
v -8.5 2 -3.5
v -6.5 2 -3.5
v -5.5 2 -3.5
v -3.5 2 -3.5
v -2.5 2 -3.5
v -0.5 2 -3.5
v 0.5 2 -3.5
v 2.5 2 -3.5
v 3.5 2 -3.5
v 5.5 2 -3.5
v 6.5 2 -3.5
v 8.5 2 -3.5
v -9.5 4 3.5
v 9.5 4 3.5
v -9.5 4 2.5
v 9.5 4 2.5
v -9.5 4 -2.5
v 9.5 4 -2.5
v -9.5 4 -3.5
v 9.5 4 -3.5
v -9.5 5 2.5
v 9.5 5 2.5
v -9.5 5 1.5
v -8.5 5 1.5
v -9.5 5 -1.5
v -8.5 5 -1.5
v -9.5 5 -2.5
v 9.5 5 -2.5

# faces
f 5/1/1 2/1/1 1/1/1
f 8/1/1 4/1/1 3/1/1
f 9/1/1 5/1/1 1/1/1
f 10/2/1 6/2/1 5/2/1
f 10/1/1 5/1/1 9/1/1
f 11/2/1 8/2/1 7/2/1
f 11/1/1 4/1/1 8/1/1
f 12/1/1 4/1/1 11/1/1
f 13/2/1 10/2/1 9/2/1
f 14/2/1 6/2/1 10/2/1
f 14/2/1 10/2/1 13/2/1
f 15/2/1 11/2/1 7/2/1
f 15/2/1 12/2/1 11/2/1
f 16/2/1 12/2/1 15/2/1
f 17/2/1 6/2/1 14/2/1
f 18/2/1 6/2/1 17/2/1
f 19/2/1 15/2/1 7/2/1
f 20/2/1 15/2/1 19/2/1
f 23/2/1 22/2/1 21/2/1
f 24/2/1 22/2/1 23/2/1
f 29/1/1 26/1/1 25/1/1
f 30/1/1 26/1/1 29/1/1
f 31/1/1 28/1/1 27/1/1
f 32/1/1 28/1/1 31/1/1
f 37/1/1 34/1/1 33/1/1
f 38/1/1 34/1/1 37/1/1
f 39/1/1 36/1/1 35/1/1
f 40/1/1 36/1/1 39/1/1
f 45/1/1 42/1/1 41/1/1
f 46/1/1 42/1/1 45/1/1
f 47/1/1 44/1/1 43/1/1
f 48/1/1 44/1/1 47/1/1
f 53/1/1 50/1/1 49/1/1
f 54/1/1 50/1/1 53/1/1
f 55/1/1 52/1/1 51/1/1
f 56/1/1 52/1/1 55/1/1
f 61/1/1 58/1/1 57/1/1
f 62/1/1 58/1/1 61/1/1
f 63/1/1 60/1/1 59/1/1
f 64/1/1 60/1/1 63/1/1
f 69/1/1 66/1/1 65/1/1
f 70/1/1 66/1/1 69/1/1
f 71/1/1 68/1/1 67/1/1
f 72/1/1 68/1/1 71/1/1
f 73/1/2 74/1/2 77/1/2
f 77/1/2 74/1/2 78/1/2
f 75/1/2 76/1/2 79/1/2
f 79/1/2 76/1/2 80/1/2
f 81/1/2 82/1/2 85/1/2
f 85/1/2 82/1/2 86/1/2
f 83/1/2 84/1/2 87/1/2
f 87/1/2 84/1/2 88/1/2
f 89/1/2 90/1/2 93/1/2
f 93/1/2 90/1/2 94/1/2
f 91/1/2 92/1/2 95/1/2
f 95/1/2 92/1/2 96/1/2
f 97/1/2 98/1/2 101/1/2
f 101/1/2 98/1/2 102/1/2
f 99/1/2 100/1/2 103/1/2
f 103/1/2 100/1/2 104/1/2
f 105/1/2 106/1/2 109/1/2
f 109/1/2 106/1/2 110/1/2
f 107/1/2 108/1/2 111/1/2
f 111/1/2 108/1/2 112/1/2
f 113/1/2 114/1/2 117/1/2
f 117/1/2 114/1/2 118/1/2
f 115/1/2 116/1/2 119/1/2
f 119/1/2 116/1/2 120/1/2
f 121/1/2 122/1/2 125/1/2
f 123/1/2 124/1/2 126/1/2
f 121/1/2 125/1/2 127/1/2
f 125/2/2 126/2/2 128/2/2
f 127/1/2 125/1/2 128/1/2
f 126/1/2 124/1/2 129/1/2
f 128/2/2 126/2/2 129/2/2
f 129/1/2 124/1/2 130/1/2
f 127/2/2 128/2/2 131/2/2
f 128/2/2 129/2/2 131/2/2
f 129/2/2 130/2/2 131/2/2
f 131/2/2 130/2/2 132/2/2
f 132/2/2 130/2/2 133/2/2
f 133/2/2 130/2/2 134/2/2
f 132/2/2 133/2/2 135/2/2
f 135/2/2 133/2/2 136/2/2
f 140/1/3 138/1/3 137/1/3
f 141/1/3 138/1/3 140/1/3
f 142/2/3 139/2/3 138/2/3
f 142/1/3 138/1/3 141/1/3
f 144/2/3 142/2/3 141/2/3
f 145/2/3 139/2/3 142/2/3
f 145/2/3 142/2/3 144/2/3
f 146/1/3 144/1/3 143/1/3
f 146/1/3 145/1/3 144/1/3
f 147/1/3 145/1/3 146/1/3
f 148/2/3 139/2/3 145/2/3
f 148/1/3 145/1/3 147/1/3
f 150/2/3 148/2/3 147/2/3
f 151/2/3 139/2/3 148/2/3
f 151/2/3 148/2/3 150/2/3
f 152/1/3 150/1/3 149/1/3
f 152/1/3 151/1/3 150/1/3
f 153/1/3 151/1/3 152/1/3
f 154/2/3 139/2/3 151/2/3
f 154/1/3 151/1/3 153/1/3
f 156/2/3 154/2/3 153/2/3
f 157/2/3 139/2/3 154/2/3
f 157/2/3 154/2/3 156/2/3
f 158/1/3 156/1/3 155/1/3
f 158/1/3 157/1/3 156/1/3
f 159/1/3 157/1/3 158/1/3
f 160/2/3 139/2/3 157/2/3
f 160/1/3 157/1/3 159/1/3
f 162/2/3 160/2/3 159/2/3
f 163/2/3 139/2/3 160/2/3
f 163/2/3 160/2/3 162/2/3
f 164/1/3 162/1/3 161/1/3
f 164/1/3 163/1/3 162/1/3
f 165/1/3 163/1/3 164/1/3
f 166/2/3 139/2/3 163/2/3
f 166/1/3 163/1/3 165/1/3
f 168/2/3 166/2/3 165/2/3
f 169/2/3 139/2/3 166/2/3
f 169/2/3 166/2/3 168/2/3
f 170/1/3 168/1/3 167/1/3
f 170/1/3 169/1/3 168/1/3
f 171/1/3 169/1/3 170/1/3
f 172/2/3 139/2/3 169/2/3
f 172/1/3 169/1/3 171/1/3
f 174/2/3 172/2/3 171/2/3
f 175/2/3 139/2/3 172/2/3
f 175/2/3 172/2/3 174/2/3
f 176/1/3 174/1/3 173/1/3
f 176/1/3 175/1/3 174/1/3
f 177/2/3 139/2/3 175/2/3
f 177/1/3 175/1/3 176/1/3
f 178/2/3 139/2/3 177/2/3
f 181/2/3 180/2/3 179/2/3
f 182/2/3 180/2/3 181/2/3
f 185/2/3 184/2/3 183/2/3
f 186/2/3 184/2/3 185/2/3
f 189/1/3 188/1/3 187/1/3
f 190/1/3 188/1/3 189/1/3
f 193/1/3 192/1/3 191/1/3
f 194/1/3 192/1/3 193/1/3
f 197/1/3 196/1/3 195/1/3
f 198/1/3 196/1/3 197/1/3
f 201/1/3 200/1/3 199/1/3
f 202/1/3 200/1/3 201/1/3
f 205/1/3 204/1/3 203/1/3
f 206/1/3 204/1/3 205/1/3
f 209/1/3 208/1/3 207/1/3
f 210/1/3 208/1/3 209/1/3
f 213/1/3 212/1/3 211/1/3
f 214/1/3 212/1/3 213/1/3
f 215/1/4 216/1/4 217/1/4
f 217/1/4 216/1/4 218/1/4
f 219/1/4 220/1/4 221/1/4
f 221/1/4 220/1/4 222/1/4
f 223/1/4 224/1/4 225/1/4
f 225/1/4 224/1/4 226/1/4
f 227/1/4 228/1/4 229/1/4
f 229/1/4 228/1/4 230/1/4
f 231/1/4 232/1/4 233/1/4
f 233/1/4 232/1/4 234/1/4
f 235/1/4 236/1/4 237/1/4
f 237/1/4 236/1/4 238/1/4
f 239/1/4 240/1/4 241/1/4
f 241/1/4 240/1/4 242/1/4
f 243/2/4 244/2/4 245/2/4
f 245/2/4 244/2/4 246/2/4
f 247/2/4 248/2/4 249/2/4
f 249/2/4 248/2/4 250/2/4
f 251/1/4 252/1/4 254/1/4
f 254/1/4 252/1/4 255/1/4
f 252/2/4 253/2/4 256/2/4
f 255/1/4 252/1/4 256/1/4
f 255/2/4 256/2/4 258/2/4
f 256/2/4 253/2/4 259/2/4
f 258/2/4 256/2/4 259/2/4
f 257/1/4 258/1/4 260/1/4
f 258/1/4 259/1/4 260/1/4
f 260/1/4 259/1/4 261/1/4
f 259/2/4 253/2/4 262/2/4
f 261/1/4 259/1/4 262/1/4
f 261/2/4 262/2/4 264/2/4
f 262/2/4 253/2/4 265/2/4
f 264/2/4 262/2/4 265/2/4
f 263/1/4 264/1/4 266/1/4
f 264/1/4 265/1/4 266/1/4
f 266/1/4 265/1/4 267/1/4
f 265/2/4 253/2/4 268/2/4
f 267/1/4 265/1/4 268/1/4
f 267/2/4 268/2/4 270/2/4
f 268/2/4 253/2/4 271/2/4
f 270/2/4 268/2/4 271/2/4
f 269/1/4 270/1/4 272/1/4
f 270/1/4 271/1/4 272/1/4
f 272/1/4 271/1/4 273/1/4
f 271/2/4 253/2/4 274/2/4
f 273/1/4 271/1/4 274/1/4
f 273/2/4 274/2/4 276/2/4
f 274/2/4 253/2/4 277/2/4
f 276/2/4 274/2/4 277/2/4
f 275/1/4 276/1/4 278/1/4
f 276/1/4 277/1/4 278/1/4
f 278/1/4 277/1/4 279/1/4
f 277/2/4 253/2/4 280/2/4
f 279/1/4 277/1/4 280/1/4
f 279/2/4 280/2/4 282/2/4
f 280/2/4 253/2/4 283/2/4
f 282/2/4 280/2/4 283/2/4
f 281/1/4 282/1/4 284/1/4
f 282/1/4 283/1/4 284/1/4
f 284/1/4 283/1/4 285/1/4
f 283/2/4 253/2/4 286/2/4
f 285/1/4 283/1/4 286/1/4
f 285/2/4 286/2/4 288/2/4
f 286/2/4 253/2/4 289/2/4
f 288/2/4 286/2/4 289/2/4
f 287/1/4 288/1/4 290/1/4
f 288/1/4 289/1/4 290/1/4
f 289/2/4 253/2/4 291/2/4
f 290/1/4 289/1/4 291/1/4
f 291/2/4 253/2/4 292/2/4
f 307/1/5 294/1/5 293/1/5
f 308/1/5 294/1/5 307/1/5
f 309/1/5 296/1/5 295/1/5
f 310/1/5 296/1/5 309/1/5
f 311/1/5 298/1/5 297/1/5
f 312/1/5 298/1/5 311/1/5
f 313/1/5 300/1/5 299/1/5
f 314/1/5 300/1/5 313/1/5
f 315/1/5 302/1/5 301/1/5
f 316/1/5 302/1/5 315/1/5
f 317/1/5 304/1/5 303/1/5
f 318/1/5 304/1/5 317/1/5
f 319/1/5 306/1/5 305/1/5
f 320/1/5 306/1/5 319/1/5
f 335/1/5 322/1/5 321/1/5
f 336/1/5 322/1/5 335/1/5
f 337/1/5 324/1/5 323/1/5
f 338/1/5 324/1/5 337/1/5
f 339/1/5 326/1/5 325/1/5
f 340/1/5 326/1/5 339/1/5
f 341/1/5 328/1/5 327/1/5
f 342/1/5 328/1/5 341/1/5
f 343/1/5 330/1/5 329/1/5
f 344/1/5 330/1/5 343/1/5
f 345/1/5 332/1/5 331/1/5
f 346/1/5 332/1/5 345/1/5
f 347/1/5 334/1/5 333/1/5
f 348/1/5 334/1/5 347/1/5
f 362/2/5 350/2/5 349/2/5
f 363/2/5 350/2/5 362/2/5
f 364/2/5 352/2/5 351/2/5
f 365/2/5 352/2/5 364/2/5
f 366/2/5 354/2/5 353/2/5
f 367/2/5 354/2/5 366/2/5
f 368/2/5 356/2/5 355/2/5
f 369/2/5 356/2/5 368/2/5
f 370/2/5 358/2/5 357/2/5
f 371/2/5 358/2/5 370/2/5
f 372/2/5 360/2/5 359/2/5
f 373/2/5 360/2/5 372/2/5
f 375/2/5 371/2/5 370/2/5
f 375/2/5 374/2/5 373/2/5
f 375/2/5 373/2/5 372/2/5
f 375/2/5 372/2/5 371/2/5
f 375/2/5 363/2/5 362/2/5
f 375/2/5 370/2/5 369/2/5
f 375/2/5 365/2/5 364/2/5
f 375/2/5 368/2/5 367/2/5
f 375/2/5 367/2/5 366/2/5
f 375/2/5 366/2/5 365/2/5
f 375/2/5 369/2/5 368/2/5
f 375/2/5 364/2/5 363/2/5
f 375/2/5 362/2/5 361/2/5
f 376/2/5 374/2/5 375/2/5
f 378/2/5 374/2/5 376/2/5
f 379/2/5 378/2/5 377/2/5
f 380/2/5 374/2/5 378/2/5
f 380/2/5 378/2/5 379/2/5
f 381/2/5 374/2/5 380/2/5
f 382/2/5 374/2/5 381/2/5
f 383/2/5 374/2/5 382/2/5
f 384/2/5 374/2/5 383/2/5
f 385/2/5 374/2/5 384/2/5
f 386/2/5 374/2/5 385/2/5
f 387/2/5 374/2/5 386/2/5
f 388/2/5 374/2/5 387/2/5
f 389/2/5 374/2/5 388/2/5
f 390/2/5 374/2/5 389/2/5
f 391/2/5 374/2/5 390/2/5
f 392/2/5 374/2/5 391/2/5
f 393/2/5 381/2/5 380/2/5
f 394/2/5 381/2/5 393/2/5
f 395/2/5 383/2/5 382/2/5
f 396/2/5 383/2/5 395/2/5
f 397/2/5 385/2/5 384/2/5
f 398/2/5 385/2/5 397/2/5
f 399/2/5 387/2/5 386/2/5
f 400/2/5 387/2/5 399/2/5
f 401/2/5 389/2/5 388/2/5
f 402/2/5 389/2/5 401/2/5
f 403/2/5 391/2/5 390/2/5
f 404/2/5 391/2/5 403/2/5
f 405/2/6 406/2/6 407/2/6
f 407/2/6 406/2/6 408/2/6
f 409/2/6 410/2/6 411/2/6
f 411/2/6 410/2/6 412/2/6
f 413/2/6 414/2/6 415/2/6
f 415/2/6 414/2/6 416/2/6
f 416/2/6 414/2/6 418/2/6
f 417/2/6 418/2/6 419/2/6
f 418/2/6 414/2/6 420/2/6
f 419/2/6 418/2/6 420/2/6
